PathFileType	4	(X/Y/Z)	 0.06m3min.trc
DataRate	CameraRate	NumFrames	NumMarkers	Units	OrigDataRate	OrigDataStartFrame	OrigNumFrames
200	200	11	35	m	200	250	997
Frame#	Time	C7			LSH			RSH			MAN			RASI			LASI			HIPR			HIPL			RPSI			LPSI			COX			RTHI1			RTHI2			RTHI3			RTHI4			RSHA1			RSHA2			RSHA3			RSHA4			RHEEL			RMET5			RMET1			RTOE			LTHI1			LTHI2			LTHI3			LTHI4			LSHA1			LSHA2			LSHA3			LSHA4			LHEEL			LMET5			LMET1			LTOE			
		X1	Y1	Z1	X2	Y2	Z2	X3	Y3	Z3	X4	Y4	Z4	X5	Y5	Z5	X6	Y6	Z6	X7	Y7	Z7	X8	Y8	Z8	X9	Y9	Z9	X10	Y10	Z10	X11	Y11	Z11	X12	Y12	Z12	X13	Y13	Z13	X14	Y14	Z14	X15	Y15	Z15	X16	Y16	Z16	X17	Y17	Z17	X18	Y18	Z18	X19	Y19	Z19	X20	Y20	Z20	X21	Y21	Z21	X22	Y22	Z22	X23	Y23	Z23	X24	Y24	Z24	X25	Y25	Z25	X26	Y26	Z26	X27	Y27	Z27	X28	Y28	Z28	X29	Y29	Z29	X30	Y30	Z30	X31	Y31	Z31	X32	Y32	Z32	X33	Y33	Z33	X34	Y34	Z34	X35	Y35	Z35	
250	1.2500	-0.276265	1.629256	-0.480382	-0.228980	1.609481	-0.719532	-0.185856	1.609408	-0.275873	-0.123603	1.574966	-0.502000	-0.106071	1.106028	-0.382569	-0.127177	1.110150	-0.614223	-0.176303	1.175229	-0.327243	-0.197914	1.170399	-0.654506	-0.292771	1.147357	-0.429457	-0.300379	1.152384	-0.533807	-0.302080	1.153948	-0.478428	-0.196785	0.872775	-0.299994	-0.182813	0.816347	-0.290208	-0.119336	0.830683	-0.285610	-0.126369	0.890864	-0.296001	-0.264300	0.421760	-0.286317	-0.280863	0.382298	-0.290760	-0.222814	0.365835	-0.295453	-0.210865	0.404059	-0.294886	-0.389315	0.101204	-0.365729	-0.214467	0.026186	-0.301140	-0.175959	0.040219	-0.391926	-0.146792	0.028723	-0.390767	-0.196646	0.856145	-0.694153	-0.182157	0.796624	-0.699818	-0.118456	0.806293	-0.701838	-0.123775	0.866523	-0.696779	-0.299746	0.380053	-0.679038	-0.315655	0.343072	-0.673040	-0.256194	0.323592	-0.676290	-0.247569	0.366333	-0.681886	-0.413770	0.100609	-0.596214	-0.257544	0.024484	-0.691286	-0.195339	0.037670	-0.610466	-0.164621	0.027700	-0.619547	
251	1.2550	-0.276826	1.632896	-0.480182	-0.229900	1.613716	-0.719270	-0.186002	1.613681	-0.275925	-0.124154	1.579089	-0.502006	-0.104984	1.109849	-0.382533	-0.126428	1.113995	-0.614169	-0.174594	1.179813	-0.327420	-0.196960	1.174726	-0.654228	-0.291598	1.151384	-0.429044	-0.299418	1.156278	-0.533599	-0.301057	1.157769	-0.478132	-0.197001	0.876789	-0.299671	-0.183318	0.820271	-0.289971	-0.119803	0.834255	-0.285255	-0.126461	0.894470	-0.295726	-0.265914	0.424968	-0.285966	-0.282251	0.385413	-0.290246	-0.224090	0.369244	-0.294532	-0.212348	0.407531	-0.294072	-0.388091	0.103910	-0.364720	-0.214283	0.026168	-0.301055	-0.175930	0.040279	-0.391628	-0.146981	0.028833	-0.390607	-0.197147	0.860115	-0.694190	-0.182959	0.800530	-0.699919	-0.119213	0.809915	-0.702174	-0.124248	0.870162	-0.697067	-0.300759	0.383355	-0.679337	-0.316473	0.346240	-0.673246	-0.256966	0.327049	-0.676991	-0.248550	0.369815	-0.682424	-0.412520	0.103537	-0.597143	-0.257237	0.024571	-0.691114	-0.195269	0.037693	-0.610735	-0.164709	0.027708	-0.619608	
252	1.2600	-0.277398	1.636598	-0.480012	-0.230806	1.618026	-0.718998	-0.186206	1.618050	-0.276007	-0.124724	1.583308	-0.502005	-0.103885	1.113738	-0.382501	-0.125682	1.117914	-0.614116	-0.172877	1.184524	-0.327625	-0.195948	1.179150	-0.653960	-0.290397	1.155561	-0.428617	-0.298444	1.160308	-0.533406	-0.300020	1.161729	-0.477821	-0.197206	0.880889	-0.299374	-0.183828	0.824263	-0.289745	-0.120283	0.837891	-0.284902	-0.126562	0.898139	-0.295450	-0.267542	0.428264	-0.285635	-0.283639	0.388595	-0.289795	-0.225345	0.372739	-0.293640	-0.213838	0.411103	-0.293258	-0.386782	0.106684	-0.363784	-0.214102	0.026170	-0.300998	-0.175898	0.040354	-0.391295	-0.147164	0.028983	-0.390400	-0.197686	0.864180	-0.694237	-0.183797	0.804540	-0.700040	-0.120011	0.813631	-0.702533	-0.124759	0.873889	-0.697369	-0.301787	0.386703	-0.679505	-0.317290	0.349479	-0.673360	-0.257730	0.330597	-0.677680	-0.249548	0.373411	-0.682966	-0.411163	0.106532	-0.598009	-0.256905	0.024701	-0.690919	-0.195195	0.037717	-0.611021	-0.164797	0.027725	-0.619681	
253	1.2650	-0.277984	1.640333	-0.479870	-0.231684	1.622380	-0.718717	-0.186474	1.622479	-0.276119	-0.125299	1.587589	-0.501993	-0.102786	1.117670	-0.382474	-0.124951	1.121879	-0.614061	-0.171160	1.189325	-0.327853	-0.194883	1.183645	-0.653702	-0.289175	1.159857	-0.428185	-0.297459	1.164443	-0.533219	-0.298974	1.165820	-0.477493	-0.197392	0.885023	-0.299097	-0.184334	0.828291	-0.289534	-0.120758	0.841563	-0.284564	-0.126659	0.901841	-0.295173	-0.269165	0.431628	-0.285328	-0.285008	0.391820	-0.289409	-0.226568	0.376296	-0.292795	-0.215309	0.414751	-0.292464	-0.385374	0.109525	-0.362918	-0.213918	0.026197	-0.300975	-0.175868	0.040450	-0.390932	-0.147339	0.029176	-0.390143	-0.198254	0.868318	-0.694291	-0.184656	0.808628	-0.700174	-0.120836	0.817424	-0.702905	-0.125294	0.877689	-0.697677	-0.302807	0.390076	-0.679537	-0.318091	0.352753	-0.673369	-0.258471	0.334220	-0.678340	-0.250544	0.377087	-0.683503	-0.409705	0.109572	-0.598804	-0.256548	0.024876	-0.690707	-0.195121	0.037745	-0.611310	-0.164882	0.027749	-0.619760	
254	1.2700	-0.278574	1.644071	-0.479761	-0.232521	1.626742	-0.718424	-0.186811	1.626935	-0.276258	-0.125882	1.591904	-0.501972	-0.101692	1.121620	-0.382455	-0.124234	1.125867	-0.614005	-0.169445	1.194188	-0.328099	-0.193748	1.188202	-0.653460	-0.287940	1.164243	-0.427747	-0.296473	1.168666	-0.533045	-0.297924	1.170015	-0.477157	-0.197552	0.889162	-0.298841	-0.184822	0.832339	-0.289247	-0.121218	0.845239	-0.284240	-0.126741	0.905549	-0.294907	-0.270759	0.435029	-0.285032	-0.286325	0.395085	-0.289043	-0.227727	0.379907	-0.291991	-0.216740	0.418453	-0.291702	-0.383879	0.112407	-0.362098	-0.213731	0.026248	-0.300986	-0.175846	0.040574	-0.390545	-0.147507	0.029414	-0.389831	-0.198835	0.872501	-0.694347	-0.185521	0.812759	-0.700315	-0.121674	0.821259	-0.703274	-0.125841	0.881530	-0.697981	-0.303805	0.393448	-0.679435	-0.318858	0.356036	-0.673276	-0.259171	0.337893	-0.678965	-0.251524	0.380815	-0.684025	-0.408148	0.112648	-0.599546	-0.256167	0.025096	-0.690485	-0.195054	0.037779	-0.611594	-0.164965	0.027780	-0.619846	
255	1.2750	-0.279159	1.647786	-0.479687	-0.233303	1.631078	-0.718121	-0.187221	1.631383	-0.276425	-0.126473	1.596213	-0.501943	-0.100610	1.125566	-0.382443	-0.123535	1.129854	-0.613950	-0.167741	1.199078	-0.328360	-0.192551	1.192802	-0.653237	-0.286708	1.168690	-0.427304	-0.295499	1.172943	-0.532872	-0.296881	1.174288	-0.476805	-0.197679	0.893289	-0.298597	-0.185285	0.836383	-0.288901	-0.121647	0.848890	-0.283943	-0.126797	0.909232	-0.294651	-0.272306	0.438441	-0.284747	-0.287572	0.398361	-0.288711	-0.228810	0.383546	-0.291236	-0.218117	0.422162	-0.290974	-0.382304	0.115313	-0.361330	-0.213541	0.026323	-0.301023	-0.175836	0.040728	-0.390147	-0.147671	0.029684	-0.389466	-0.199414	0.876705	-0.694405	-0.186381	0.816904	-0.700460	-0.122511	0.825122	-0.703638	-0.126386	0.885400	-0.698278	-0.304769	0.396801	-0.679226	-0.319570	0.359296	-0.673122	-0.259815	0.341583	-0.679541	-0.252473	0.384556	-0.684505	-0.406500	0.115743	-0.600262	-0.255760	0.025371	-0.690267	-0.194996	0.037818	-0.611865	-0.165040	0.027830	-0.619953	
256	1.2800	-0.279740	1.651451	-0.479645	-0.234036	1.635365	-0.717807	-0.187701	1.635788	-0.276619	-0.127074	1.600499	-0.501906	-0.099545	1.129480	-0.382448	-0.122863	1.133809	-0.613891	-0.166033	1.203950	-0.328639	-0.191300	1.197425	-0.653042	-0.285490	1.173157	-0.426867	-0.294541	1.177248	-0.532712	-0.295849	1.178617	-0.476448	-0.197764	0.897365	-0.298359	-0.185714	0.840393	-0.288530	-0.122031	0.852500	-0.283674	-0.126819	0.912866	-0.294418	-0.273782	0.441828	-0.284473	-0.288733	0.401639	-0.288346	-0.229822	0.387184	-0.290479	-0.219422	0.425861	-0.290298	-0.380651	0.118232	-0.360590	-0.213347	0.026420	-0.301088	-0.175838	0.040909	-0.389747	-0.147835	0.029979	-0.389054	-0.199972	0.880902	-0.694468	-0.187219	0.821042	-0.700603	-0.123330	0.828976	-0.703978	-0.126919	0.889267	-0.698560	-0.305694	0.400107	-0.678912	-0.320216	0.362516	-0.672898	-0.260398	0.345250	-0.680065	-0.253388	0.388276	-0.684937	-0.404779	0.118831	-0.600940	-0.255330	0.025699	-0.690062	-0.194942	0.037864	-0.612120	-0.165108	0.027895	-0.620080	
257	1.2850	-0.280312	1.655043	-0.479631	-0.234708	1.639576	-0.717483	-0.188252	1.640121	-0.276838	-0.127677	1.604728	-0.501855	-0.098502	1.133337	-0.382472	-0.122218	1.137707	-0.613831	-0.164332	1.208766	-0.328924	-0.190013	1.202044	-0.652861	-0.284297	1.177622	-0.426443	-0.293605	1.181561	-0.532554	-0.294839	1.182976	-0.476114	-0.197807	0.901358	-0.298120	-0.186101	0.844345	-0.288151	-0.122356	0.856055	-0.283448	-0.126795	0.916434	-0.294208	-0.275175	0.445169	-0.284235	-0.289814	0.404880	-0.288004	-0.230756	0.390788	-0.289773	-0.220647	0.429524	-0.289670	-0.378919	0.121146	-0.359845	-0.213150	0.026541	-0.301176	-0.175849	0.041112	-0.389347	-0.147997	0.030294	-0.388601	-0.200497	0.885068	-0.694532	-0.188021	0.825136	-0.700735	-0.124114	0.832809	-0.704294	-0.127430	0.893116	-0.698825	-0.306571	0.403356	-0.678561	-0.320793	0.365665	-0.672612	-0.260920	0.348867	-0.680529	-0.254260	0.391942	-0.685315	-0.403001	0.121888	-0.601593	-0.254876	0.026085	-0.689868	-0.194887	0.037925	-0.612361	-0.165169	0.027977	-0.620244	
258	1.2900	-0.280864	1.658543	-0.479643	-0.235317	1.643684	-0.717149	-0.188866	1.644349	-0.277080	-0.128287	1.608882	-0.501792	-0.097482	1.137112	-0.382522	-0.121601	1.141531	-0.613771	-0.162653	1.213477	-0.329205	-0.188710	1.206636	-0.652707	-0.283140	1.182042	-0.426035	-0.292695	1.185856	-0.532421	-0.293862	1.187326	-0.475805	-0.197806	0.905260	-0.297876	-0.186444	0.848206	-0.287810	-0.122620	0.859522	-0.283264	-0.126724	0.919924	-0.294034	-0.276471	0.448440	-0.284019	-0.290811	0.408054	-0.287712	-0.231610	0.394338	-0.289112	-0.221785	0.433119	-0.289083	-0.377111	0.124041	-0.359089	-0.212955	0.026681	-0.301277	-0.175864	0.041335	-0.388949	-0.148160	0.030626	-0.388112	-0.200984	0.889170	-0.694585	-0.188781	0.829164	-0.700857	-0.124856	0.836592	-0.704579	-0.127913	0.896912	-0.699065	-0.307393	0.406526	-0.678179	-0.321287	0.368728	-0.672280	-0.261377	0.352406	-0.680930	-0.255082	0.395538	-0.685638	-0.401174	0.124912	-0.602239	-0.254391	0.026540	-0.689683	-0.194823	0.038002	-0.612585	-0.165219	0.028086	-0.620462	
259	1.2950	-0.281392	1.661929	-0.479674	-0.235865	1.647668	-0.716805	-0.189534	1.648443	-0.277345	-0.128890	1.612930	-0.501715	-0.096493	1.140776	-0.382602	-0.121018	1.145253	-0.613711	-0.161021	1.218028	-0.329470	-0.187442	1.211161	-0.652563	-0.282027	1.186393	-0.425654	-0.291826	1.190092	-0.532285	-0.292920	1.191642	-0.475522	-0.197757	0.909049	-0.297623	-0.186731	0.851953	-0.287510	-0.122818	0.862889	-0.283134	-0.126606	0.923306	-0.293895	-0.277668	0.451620	-0.283829	-0.291721	0.411129	-0.287489	-0.232385	0.397800	-0.288489	-0.222834	0.436630	-0.288537	-0.375244	0.126904	-0.358320	-0.212759	0.026845	-0.301387	-0.175885	0.041567	-0.388543	-0.148320	0.030965	-0.387581	-0.201433	0.893178	-0.694627	-0.189487	0.833100	-0.700960	-0.125544	0.840304	-0.704829	-0.128374	0.900621	-0.699258	-0.308147	0.409595	-0.677781	-0.321699	0.371683	-0.671908	-0.261765	0.355837	-0.681266	-0.255847	0.399026	-0.685906	-0.399329	0.127851	-0.602846	-0.253858	0.027088	-0.689499	-0.194743	0.038101	-0.612792	-0.165258	0.028232	-0.620749	
260	1.3000	-0.281892	1.665189	-0.479716	-0.236350	1.651510	-0.716451	-0.190246	1.652378	-0.277628	-0.129482	1.616859	-0.501624	-0.095542	1.144308	-0.382711	-0.120473	1.148848	-0.613650	-0.159465	1.222356	-0.329697	-0.186229	1.215596	-0.652432	-0.280967	1.190648	-0.425302	-0.290998	1.194255	-0.532179	-0.292015	1.195898	-0.475273	-0.197661	0.912698	-0.297366	-0.186961	0.855558	-0.287312	-0.122944	0.866139	-0.283060	-0.126437	0.926573	-0.293802	-0.278756	0.454688	-0.283656	-0.292525	0.414112	-0.287295	-0.233079	0.401152	-0.287895	-0.223786	0.440035	-0.288032	-0.373346	0.129718	-0.357495	-0.212557	0.027043	-0.301507	-0.175907	0.041821	-0.388118	-0.148474	0.031329	-0.386992	-0.201844	0.897059	-0.694651	-0.190141	0.836915	-0.701040	-0.126179	0.843909	-0.705030	-0.128813	0.904206	-0.699395	-0.308836	0.412536	-0.677356	-0.322029	0.374521	-0.671482	-0.262083	0.359141	-0.681543	-0.256546	0.402394	-0.686120	-0.397477	0.130720	-0.603420	-0.253265	0.027736	-0.689295	-0.194650	0.038231	-0.612982	-0.165299	0.028416	-0.621108	
